<?xml version="1.0" encoding="UTF-8"?>
<!DOCTYPE svg PUBLIC "-//W3C//DTD SVG 1.1//EN" "http://www.w3.org/Graphics/SVG/1.1/DTD/svg11.dtd">
<svg xmlns="http://www.w3.org/2000/svg" version="1.1" width="2000px" height="2000px" style="shape-rendering:geometricPrecision; text-rendering:geometricPrecision; image-rendering:optimizeQuality; fill-rule:evenodd; clip-rule:evenodd" xmlns:xlink="http://www.w3.org/1999/xlink">
<g><path style="opacity:0.992" fill="#fdfbfa" d="M 279.5,754.5 C 393.167,754.5 506.833,754.5 620.5,754.5C 620.5,868.167 620.5,981.833 620.5,1095.5C 506.833,1095.5 393.167,1095.5 279.5,1095.5C 279.5,981.833 279.5,868.167 279.5,754.5 Z M 413.5,843.5 C 437.527,843.108 461.527,843.608 485.5,845C 508.546,846.461 529.879,853.128 549.5,865C 561.786,873.744 568.786,885.577 570.5,900.5C 550.497,900.667 530.497,900.5 510.5,900C 506.508,892.66 500.508,887.66 492.5,885C 471.246,878.914 449.58,876.914 427.5,879C 411.75,879.516 397.417,884.183 384.5,893C 372.553,906.701 370.386,921.868 378,938.5C 388.52,952.682 402.687,960.515 420.5,962C 447.068,965.494 473.068,963.16 498.5,955C 505.742,952.391 511.409,947.891 515.5,941.5C 491.176,940.5 466.842,940.167 442.5,940.5C 442.5,931.167 442.5,921.833 442.5,912.5C 485.5,912.5 528.5,912.5 571.5,912.5C 571.5,940.5 571.5,968.5 571.5,996.5C 558.167,996.5 544.833,996.5 531.5,996.5C 531.259,988.799 530.593,981.132 529.5,973.5C 514.299,986.633 496.632,994.466 476.5,997C 441.408,1001.86 406.742,999.857 372.5,991C 326.315,976.17 307.815,945.003 317,897.5C 324.808,877.692 338.641,863.859 358.5,856C 376.437,849.45 394.77,845.283 413.5,843.5 Z"/></g>
<g><path style="opacity:0.997" fill="#fdfbfa" d="M 639.5,754.5 C 753.167,754.5 866.833,754.5 980.5,754.5C 980.5,868.167 980.5,981.833 980.5,1095.5C 866.833,1095.5 753.167,1095.5 639.5,1095.5C 639.5,981.833 639.5,868.167 639.5,754.5 Z M 714.5,845.5 C 733.5,845.5 752.5,845.5 771.5,845.5C 771.5,883.833 771.5,922.167 771.5,960.5C 814.167,960.5 856.833,960.5 899.5,960.5C 899.5,972.833 899.5,985.167 899.5,997.5C 837.833,997.5 776.167,997.5 714.5,997.5C 714.5,946.833 714.5,896.167 714.5,845.5 Z"/></g>
<g><path style="opacity:0.996" fill="#fdfbfa" d="M 999.5,754.5 C 1113.17,754.5 1226.83,754.5 1340.5,754.5C 1340.5,868.167 1340.5,981.833 1340.5,1095.5C 1226.83,1095.5 1113.17,1095.5 999.5,1095.5C 999.5,981.833 999.5,868.167 999.5,754.5 Z M 1052.5,844.5 C 1105.17,844.333 1157.83,844.5 1210.5,845C 1225.83,844.625 1240.83,846.625 1255.5,851C 1279,861.899 1284.17,878.399 1271,900.5C 1264.33,905.254 1257.16,909.087 1249.5,912C 1262.41,915.538 1273.58,922.038 1283,931.5C 1292.64,950.812 1289.81,967.979 1274.5,983C 1261.59,990.729 1247.59,995.062 1232.5,996C 1172.5,996.5 1112.5,996.667 1052.5,996.5C 1052.5,945.833 1052.5,895.167 1052.5,844.5 Z"/></g>
<g><path style="opacity:0.995" fill="#fdfbfa" d="M 1359.5,754.5 C 1473.17,754.5 1586.83,754.5 1700.5,754.5C 1700.5,868.167 1700.5,981.833 1700.5,1095.5C 1586.83,1095.5 1473.17,1095.5 1359.5,1095.5C 1359.5,981.833 1359.5,868.167 1359.5,754.5 Z M 1404.5,845.5 C 1425.84,845.333 1447.17,845.5 1468.5,846C 1507.67,877.833 1546.83,909.667 1586,941.5C 1586.5,909.502 1586.67,877.502 1586.5,845.5C 1605.5,845.5 1624.5,845.5 1643.5,845.5C 1643.5,896.167 1643.5,946.833 1643.5,997.5C 1624.5,997.667 1605.5,997.5 1586.5,997C 1544.98,963.31 1503.31,929.81 1461.5,896.5C 1460.5,930.16 1460.17,963.827 1460.5,997.5C 1441.83,997.5 1423.17,997.5 1404.5,997.5C 1404.5,946.833 1404.5,896.167 1404.5,845.5 Z"/></g>
<g><path style="opacity:0.943" fill="#fdfbfa" d="M 1109.5,876.5 C 1142.83,876.333 1176.17,876.5 1209.5,877C 1220.28,879.015 1223.78,885.182 1220,895.5C 1215.86,899.994 1210.7,902.16 1204.5,902C 1172.84,902.5 1141.17,902.667 1109.5,902.5C 1109.5,893.833 1109.5,885.167 1109.5,876.5 Z"/></g>
<g><path style="opacity:0.953" fill="#fdfbfa" d="M 1109.5,933.5 C 1143.83,933.333 1178.17,933.5 1212.5,934C 1228.15,936.138 1232.65,944.304 1226,958.5C 1222.85,961.667 1219.01,963.501 1214.5,964C 1179.5,964.5 1144.5,964.667 1109.5,964.5C 1109.5,954.167 1109.5,943.833 1109.5,933.5 Z"/></g>
<g><path style="opacity:0.893" fill="#fdfbfa" d="M 293.5,1129.5 C 303.501,1127.45 311.834,1130.11 318.5,1137.5C 316.772,1139.23 314.772,1140.56 312.5,1141.5C 304.038,1133.55 295.538,1133.55 287,1141.5C 281.443,1151.49 283.609,1159.33 293.5,1165C 299.31,1167.12 304.977,1166.79 310.5,1164C 312.562,1162.47 313.896,1160.47 314.5,1158C 310.514,1157.5 306.514,1157.33 302.5,1157.5C 302.5,1155.5 302.5,1153.5 302.5,1151.5C 309.167,1151.5 315.833,1151.5 322.5,1151.5C 323.622,1162.45 318.955,1169.29 308.5,1172C 299.61,1173.6 291.277,1172.26 283.5,1168C 276.612,1162 274.112,1154.5 276,1145.5C 278.882,1136.83 284.715,1131.5 293.5,1129.5 Z"/></g>
<g><path style="opacity:0.897" fill="#fdfbfa" d="M 358.5,1129.5 C 373.726,1126.83 384.226,1132.49 390,1146.5C 391.348,1159.83 385.515,1168.33 372.5,1172C 361.087,1174.42 351.587,1171.25 344,1162.5C 337.356,1146.45 342.189,1135.45 358.5,1129.5 Z M 362.5,1135.5 C 373.403,1135.24 380.07,1140.41 382.5,1151C 380.521,1160.14 374.854,1165.31 365.5,1166.5C 351.672,1164.22 346.839,1156.55 351,1143.5C 353.954,1139.35 357.787,1136.68 362.5,1135.5 Z"/></g>
<g><path style="opacity:0.891" fill="#fdfbfa" d="M 418.5,1129.5 C 423.599,1129.17 428.599,1129.67 433.5,1131C 435.543,1132.71 437.21,1134.71 438.5,1137C 436.385,1137.56 434.385,1138.39 432.5,1139.5C 428.97,1135.88 424.97,1135.04 420.5,1137C 417.735,1139.97 418.068,1142.63 421.5,1145C 425.953,1146.73 430.286,1148.73 434.5,1151C 439.63,1155.22 440.796,1160.38 438,1166.5C 436.062,1169.11 433.562,1170.94 430.5,1172C 423.426,1173.47 416.926,1172.3 411,1168.5C 410.167,1166.83 409.333,1165.17 408.5,1163.5C 411.992,1159.56 414.992,1159.73 417.5,1164C 423.568,1168.09 428.234,1166.92 431.5,1160.5C 430.699,1157.87 429.033,1156.03 426.5,1155C 419.994,1153.34 414.827,1149.84 411,1144.5C 409.271,1137.29 411.771,1132.29 418.5,1129.5 Z"/></g>
<g><path style="opacity:0.897" fill="#fdfbfa" d="M 687.5,1129.5 C 702.726,1126.83 713.226,1132.49 719,1146.5C 720.348,1159.83 714.515,1168.33 701.5,1172C 690.087,1174.42 680.587,1171.25 673,1162.5C 666.356,1146.45 671.189,1135.45 687.5,1129.5 Z M 691.5,1135.5 C 702.403,1135.24 709.07,1140.41 711.5,1151C 709.521,1160.14 703.854,1165.31 694.5,1166.5C 680.672,1164.22 675.839,1156.55 680,1143.5C 682.954,1139.35 686.787,1136.68 691.5,1135.5 Z"/></g>
<g><path style="opacity:0.891" fill="#fdfbfa" d="M 1248.5,1129.5 C 1253.6,1129.17 1258.6,1129.67 1263.5,1131C 1265.54,1132.71 1267.21,1134.71 1268.5,1137C 1266.39,1137.56 1264.39,1138.39 1262.5,1139.5C 1258.97,1135.88 1254.97,1135.04 1250.5,1137C 1247.73,1139.97 1248.07,1142.63 1251.5,1145C 1255.95,1146.73 1260.29,1148.73 1264.5,1151C 1269.63,1155.22 1270.8,1160.38 1268,1166.5C 1266.06,1169.11 1263.56,1170.94 1260.5,1172C 1253.43,1173.47 1246.93,1172.3 1241,1168.5C 1240.17,1166.83 1239.33,1165.17 1238.5,1163.5C 1241.99,1159.56 1244.99,1159.73 1247.5,1164C 1253.57,1168.09 1258.23,1166.92 1261.5,1160.5C 1260.7,1157.87 1259.03,1156.03 1256.5,1155C 1249.99,1153.34 1244.83,1149.84 1241,1144.5C 1239.27,1137.29 1241.77,1132.29 1248.5,1129.5 Z"/></g>
<g><path style="opacity:0.882" fill="#fdfbfa" d="M 1321.5,1129.5 C 1333.58,1137.98 1345.08,1147.31 1356,1157.5C 1356.5,1148.51 1356.67,1139.51 1356.5,1130.5C 1359.17,1130.5 1361.83,1130.5 1364.5,1130.5C 1364.67,1144.5 1364.5,1158.5 1364,1172.5C 1353,1163.5 1342,1154.5 1331,1145.5C 1330.5,1154.49 1330.33,1163.49 1330.5,1172.5C 1327.5,1172.5 1324.5,1172.5 1321.5,1172.5C 1321.5,1158.17 1321.5,1143.83 1321.5,1129.5 Z"/></g>
<g><path style="opacity:0.897" fill="#fdfbfa" d="M 1570.5,1129.5 C 1585.73,1126.83 1596.23,1132.49 1602,1146.5C 1603.35,1159.83 1597.52,1168.33 1584.5,1172C 1573.09,1174.42 1563.59,1171.25 1556,1162.5C 1549.36,1146.45 1554.19,1135.45 1570.5,1129.5 Z M 1574.5,1135.5 C 1585.4,1135.24 1592.07,1140.41 1594.5,1151C 1592.52,1160.14 1586.85,1165.31 1577.5,1166.5C 1563.67,1164.22 1558.84,1156.55 1563,1143.5C 1565.95,1139.35 1569.79,1136.68 1574.5,1135.5 Z"/></g>
<g><path style="opacity:0.942" fill="#fdfbfa" d="M 460.5,1130.5 C 467.508,1130.33 474.508,1130.5 481.5,1131C 487.887,1134.28 490.053,1139.45 488,1146.5C 487.167,1150 485,1152.17 481.5,1153C 477.179,1153.5 472.846,1153.67 468.5,1153.5C 468.5,1159.83 468.5,1166.17 468.5,1172.5C 465.833,1172.5 463.167,1172.5 460.5,1172.5C 460.5,1158.5 460.5,1144.5 460.5,1130.5 Z M 468.5,1136.5 C 471.91,1136.46 475.243,1136.96 478.5,1138C 481.034,1140.75 481.034,1143.41 478.5,1146C 475.243,1147.04 471.91,1147.54 468.5,1147.5C 468.5,1143.83 468.5,1140.17 468.5,1136.5 Z"/></g>
<g><path style="opacity:0.956" fill="#fdfbfa" d="M 507.5,1130.5 C 516.5,1130.5 525.5,1130.5 534.5,1130.5C 534.5,1132.5 534.5,1134.5 534.5,1136.5C 528.167,1136.5 521.833,1136.5 515.5,1136.5C 515.5,1139.83 515.5,1143.17 515.5,1146.5C 521.833,1146.5 528.167,1146.5 534.5,1146.5C 534.5,1148.5 534.5,1150.5 534.5,1152.5C 528.167,1152.5 521.833,1152.5 515.5,1152.5C 515.5,1157.17 515.5,1161.83 515.5,1166.5C 521.833,1166.5 528.167,1166.5 534.5,1166.5C 534.5,1168.5 534.5,1170.5 534.5,1172.5C 525.5,1172.5 516.5,1172.5 507.5,1172.5C 507.5,1158.5 507.5,1144.5 507.5,1130.5 Z"/></g>
<g><path style="opacity:0.958" fill="#fdfbfa" d="M 554.5,1130.5 C 557.167,1130.5 559.833,1130.5 562.5,1130.5C 562.5,1142.5 562.5,1154.5 562.5,1166.5C 568.167,1166.5 573.833,1166.5 579.5,1166.5C 579.5,1168.5 579.5,1170.5 579.5,1172.5C 571.167,1172.5 562.833,1172.5 554.5,1172.5C 554.5,1158.5 554.5,1144.5 554.5,1130.5 Z"/></g>
<g><path style="opacity:0.958" fill="#fdfbfa" d="M 630.5,1130.5 C 633.167,1130.5 635.833,1130.5 638.5,1130.5C 638.5,1142.5 638.5,1154.5 638.5,1166.5C 644.167,1166.5 649.833,1166.5 655.5,1166.5C 655.5,1168.5 655.5,1170.5 655.5,1172.5C 647.167,1172.5 638.833,1172.5 630.5,1172.5C 630.5,1158.5 630.5,1144.5 630.5,1130.5 Z"/></g>
<g><path style="opacity:0.858" fill="#fdfbfa" d="M 733.5,1131.5 C 736.355,1130.2 739.355,1130.2 742.5,1131.5C 746.502,1139.84 750.502,1148.18 754.5,1156.5C 758.768,1148.3 762.768,1139.96 766.5,1131.5C 769.446,1130.35 772.446,1130.18 775.5,1131C 768.899,1145.04 761.899,1158.87 754.5,1172.5C 747.2,1158.9 740.2,1145.23 733.5,1131.5 Z"/></g>
<g><path style="opacity:0.956" fill="#fdfbfa" d="M 792.5,1130.5 C 801.5,1130.5 810.5,1130.5 819.5,1130.5C 819.5,1132.5 819.5,1134.5 819.5,1136.5C 813.167,1136.5 806.833,1136.5 800.5,1136.5C 800.5,1139.83 800.5,1143.17 800.5,1146.5C 806.833,1146.5 813.167,1146.5 819.5,1146.5C 819.5,1148.5 819.5,1150.5 819.5,1152.5C 813.167,1152.5 806.833,1152.5 800.5,1152.5C 800.5,1157.17 800.5,1161.83 800.5,1166.5C 806.833,1166.5 813.167,1166.5 819.5,1166.5C 819.5,1168.5 819.5,1170.5 819.5,1172.5C 810.5,1172.5 801.5,1172.5 792.5,1172.5C 792.5,1158.5 792.5,1144.5 792.5,1130.5 Z"/></g>
<g><path style="opacity:0.932" fill="#fdfbfa" d="M 872.5,1130.5 C 879.508,1130.33 886.508,1130.5 893.5,1131C 900.414,1134.68 902.248,1140.18 899,1147.5C 898.097,1148.7 896.931,1149.53 895.5,1150C 902.128,1153.14 904.295,1158.31 902,1165.5C 900.878,1167.62 899.378,1169.46 897.5,1171C 889.251,1172.41 880.917,1172.91 872.5,1172.5C 872.5,1158.5 872.5,1144.5 872.5,1130.5 Z M 880.5,1136.5 C 883.91,1136.46 887.243,1136.96 890.5,1138C 893.167,1141 893.167,1144 890.5,1147C 887.243,1148.04 883.91,1148.54 880.5,1148.5C 880.5,1144.5 880.5,1140.5 880.5,1136.5 Z M 880.5,1153.5 C 884.273,1153.26 887.94,1153.76 891.5,1155C 895.5,1158.33 895.5,1161.67 891.5,1165C 887.94,1166.24 884.273,1166.74 880.5,1166.5C 880.5,1162.17 880.5,1157.83 880.5,1153.5 Z"/></g>
<g><path style="opacity:0.956" fill="#fdfbfa" d="M 922.5,1130.5 C 931.5,1130.5 940.5,1130.5 949.5,1130.5C 949.5,1132.5 949.5,1134.5 949.5,1136.5C 943.167,1136.5 936.833,1136.5 930.5,1136.5C 930.5,1139.83 930.5,1143.17 930.5,1146.5C 936.833,1146.5 943.167,1146.5 949.5,1146.5C 949.5,1148.5 949.5,1150.5 949.5,1152.5C 943.167,1152.5 936.833,1152.5 930.5,1152.5C 930.5,1157.17 930.5,1161.83 930.5,1166.5C 936.833,1166.5 943.167,1166.5 949.5,1166.5C 949.5,1168.5 949.5,1170.5 949.5,1172.5C 940.5,1172.5 931.5,1172.5 922.5,1172.5C 922.5,1158.5 922.5,1144.5 922.5,1130.5 Z"/></g>
<g><path style="opacity:0.958" fill="#fdfbfa" d="M 970.5,1130.5 C 973.167,1130.5 975.833,1130.5 978.5,1130.5C 978.5,1142.5 978.5,1154.5 978.5,1166.5C 984.167,1166.5 989.833,1166.5 995.5,1166.5C 995.5,1168.5 995.5,1170.5 995.5,1172.5C 987.167,1172.5 978.833,1172.5 970.5,1172.5C 970.5,1158.5 970.5,1144.5 970.5,1130.5 Z"/></g>
<g><path style="opacity:0.95" fill="#fdfbfa" d="M 1013.5,1130.5 C 1016.17,1130.5 1018.83,1130.5 1021.5,1130.5C 1021.5,1144.5 1021.5,1158.5 1021.5,1172.5C 1018.83,1172.5 1016.17,1172.5 1013.5,1172.5C 1013.5,1158.5 1013.5,1144.5 1013.5,1130.5 Z"/></g>
<g><path style="opacity:0.956" fill="#fdfbfa" d="M 1044.5,1130.5 C 1053.5,1130.5 1062.5,1130.5 1071.5,1130.5C 1071.5,1132.5 1071.5,1134.5 1071.5,1136.5C 1065.17,1136.5 1058.83,1136.5 1052.5,1136.5C 1052.5,1139.83 1052.5,1143.17 1052.5,1146.5C 1058.83,1146.5 1065.17,1146.5 1071.5,1146.5C 1071.5,1148.5 1071.5,1150.5 1071.5,1152.5C 1065.17,1152.5 1058.83,1152.5 1052.5,1152.5C 1052.5,1157.17 1052.5,1161.83 1052.5,1166.5C 1058.83,1166.5 1065.17,1166.5 1071.5,1166.5C 1071.5,1168.5 1071.5,1170.5 1071.5,1172.5C 1062.5,1172.5 1053.5,1172.5 1044.5,1172.5C 1044.5,1158.5 1044.5,1144.5 1044.5,1130.5 Z"/></g>
<g><path style="opacity:0.858" fill="#fdfbfa" d="M 1086.5,1131.5 C 1089.36,1130.2 1092.36,1130.2 1095.5,1131.5C 1099.5,1139.84 1103.5,1148.18 1107.5,1156.5C 1111.77,1148.3 1115.77,1139.96 1119.5,1131.5C 1122.45,1130.35 1125.45,1130.18 1128.5,1131C 1121.9,1145.04 1114.9,1158.87 1107.5,1172.5C 1100.2,1158.9 1093.2,1145.23 1086.5,1131.5 Z"/></g>
<g><path style="opacity:0.956" fill="#fdfbfa" d="M 1145.5,1130.5 C 1154.5,1130.5 1163.5,1130.5 1172.5,1130.5C 1172.5,1132.5 1172.5,1134.5 1172.5,1136.5C 1166.17,1136.5 1159.83,1136.5 1153.5,1136.5C 1153.5,1139.83 1153.5,1143.17 1153.5,1146.5C 1159.83,1146.5 1166.17,1146.5 1172.5,1146.5C 1172.5,1148.5 1172.5,1150.5 1172.5,1152.5C 1166.17,1152.5 1159.83,1152.5 1153.5,1152.5C 1153.5,1157.17 1153.5,1161.83 1153.5,1166.5C 1159.83,1166.5 1166.17,1166.5 1172.5,1166.5C 1172.5,1168.5 1172.5,1170.5 1172.5,1172.5C 1163.5,1172.5 1154.5,1172.5 1145.5,1172.5C 1145.5,1158.5 1145.5,1144.5 1145.5,1130.5 Z"/></g>
<g><path style="opacity:0.925" fill="#fdfbfa" d="M 1192.5,1130.5 C 1199.92,1130.11 1207.25,1130.61 1214.5,1132C 1221.17,1138.67 1221.17,1145.33 1214.5,1152C 1212.75,1152.47 1211.09,1153.14 1209.5,1154C 1214.86,1160.03 1220.2,1166.03 1225.5,1172C 1221.79,1172.83 1218.12,1172.66 1214.5,1171.5C 1210,1165.83 1205.5,1160.17 1201,1154.5C 1200.5,1160.49 1200.33,1166.49 1200.5,1172.5C 1197.83,1172.5 1195.17,1172.5 1192.5,1172.5C 1192.5,1158.5 1192.5,1144.5 1192.5,1130.5 Z M 1200.5,1136.5 C 1206.04,1135.82 1209.71,1137.99 1211.5,1143C 1211.1,1144.47 1210.43,1145.81 1209.5,1147C 1206.57,1147.95 1203.57,1148.45 1200.5,1148.5C 1200.5,1144.5 1200.5,1140.5 1200.5,1136.5 Z"/></g>
<g><path style="opacity:0.956" fill="#fdfbfa" d="M 1387.5,1130.5 C 1396.5,1130.5 1405.5,1130.5 1414.5,1130.5C 1414.5,1132.5 1414.5,1134.5 1414.5,1136.5C 1408.17,1136.5 1401.83,1136.5 1395.5,1136.5C 1395.5,1139.83 1395.5,1143.17 1395.5,1146.5C 1401.83,1146.5 1408.17,1146.5 1414.5,1146.5C 1414.5,1148.5 1414.5,1150.5 1414.5,1152.5C 1408.17,1152.5 1401.83,1152.5 1395.5,1152.5C 1395.5,1157.17 1395.5,1161.83 1395.5,1166.5C 1401.83,1166.5 1408.17,1166.5 1414.5,1166.5C 1414.5,1168.5 1414.5,1170.5 1414.5,1172.5C 1405.5,1172.5 1396.5,1172.5 1387.5,1172.5C 1387.5,1158.5 1387.5,1144.5 1387.5,1130.5 Z"/></g>
<g><path style="opacity:0.888" fill="#fdfbfa" d="M 1429.5,1130.5 C 1440.5,1130.5 1451.5,1130.5 1462.5,1130.5C 1462.5,1132.5 1462.5,1134.5 1462.5,1136.5C 1458.5,1136.5 1454.5,1136.5 1450.5,1136.5C 1450.5,1148.5 1450.5,1160.5 1450.5,1172.5C 1447.5,1172.5 1444.5,1172.5 1441.5,1172.5C 1441.5,1160.5 1441.5,1148.5 1441.5,1136.5C 1437.5,1136.5 1433.5,1136.5 1429.5,1136.5C 1429.5,1134.5 1429.5,1132.5 1429.5,1130.5 Z"/></g>
<g><path style="opacity:0.864" fill="#fdfbfa" d="M 1474.5,1131.5 C 1477.36,1130.2 1480.36,1130.2 1483.5,1131.5C 1487.1,1139.79 1490.6,1148.13 1494,1156.5C 1497.56,1147.71 1501.4,1139.04 1505.5,1130.5C 1510.43,1138.71 1514.6,1147.37 1518,1156.5C 1521.14,1148.09 1524.47,1139.75 1528,1131.5C 1530.79,1130.22 1533.63,1130.22 1536.5,1131.5C 1530.76,1145.31 1524.76,1158.98 1518.5,1172.5C 1514.08,1163.99 1509.91,1155.32 1506,1146.5C 1502.21,1155.41 1497.88,1164.08 1493,1172.5C 1486.92,1158.72 1480.75,1145.06 1474.5,1131.5 Z"/></g>
<g><path style="opacity:0.925" fill="#fdfbfa" d="M 1623.5,1130.5 C 1630.92,1130.11 1638.25,1130.61 1645.5,1132C 1652.17,1138.67 1652.17,1145.33 1645.5,1152C 1643.75,1152.47 1642.09,1153.14 1640.5,1154C 1645.86,1160.03 1651.2,1166.03 1656.5,1172C 1652.79,1172.83 1649.12,1172.66 1645.5,1171.5C 1641,1165.83 1636.5,1160.17 1632,1154.5C 1631.5,1160.49 1631.33,1166.49 1631.5,1172.5C 1628.83,1172.5 1626.17,1172.5 1623.5,1172.5C 1623.5,1158.5 1623.5,1144.5 1623.5,1130.5 Z M 1631.5,1136.5 C 1637.04,1135.82 1640.71,1137.99 1642.5,1143C 1642.1,1144.47 1641.43,1145.81 1640.5,1147C 1637.57,1147.95 1634.57,1148.45 1631.5,1148.5C 1631.5,1144.5 1631.5,1140.5 1631.5,1136.5 Z"/></g>
<g><path style="opacity:0.912" fill="#fdfbfa" d="M 1672.5,1130.5 C 1675.17,1130.5 1677.83,1130.5 1680.5,1130.5C 1680.33,1135.84 1680.5,1141.18 1681,1146.5C 1686.2,1141.63 1691.03,1136.47 1695.5,1131C 1699.17,1130.33 1702.83,1130.33 1706.5,1131C 1700.5,1137 1694.5,1143 1688.5,1149C 1694.79,1156.96 1701.46,1164.63 1708.5,1172C 1704.83,1172.67 1701.17,1172.67 1697.5,1172C 1692.12,1165.41 1686.62,1158.91 1681,1152.5C 1680.5,1159.16 1680.33,1165.83 1680.5,1172.5C 1677.83,1172.5 1675.17,1172.5 1672.5,1172.5C 1672.5,1158.5 1672.5,1144.5 1672.5,1130.5 Z"/></g>
</svg>
